<svg xmlns="http://www.w3.org/2000/svg" xmlns:xlink="http://www.w3.org/1999/xlink" width="1152" zoomAndPan="magnify" viewBox="0 0 864 863.999991" height="1152" preserveAspectRatio="xMidYMid meet" version="1.0"><defs><clipPath id="ee8c945d94"><path d="M 67.171875 86.398438 L 506 86.398438 L 506 677 L 67.171875 677 Z M 67.171875 86.398438 " clip-rule="nonzero"/></clipPath><clipPath id="8e717393fd"><path d="M 359 175 L 796.921875 175 L 796.921875 765.148438 L 359 765.148438 Z M 359 175 " clip-rule="nonzero"/></clipPath></defs><g clip-path="url(#ee8c945d94)"><path fill="#ffffff" d="M 67.371094 86.398438 L 505.011719 86.398438 L 505.011719 449.371094 L 502.097656 449.371094 L 502.097656 353.238281 L 332.722656 353.238281 L 332.722656 405.382812 L 383.402344 405.382812 L 383.402344 436.554688 C 372.773438 443.542969 359.519531 447.1875 342.335938 447.1875 C 301.699219 447.1875 272.71875 417.472656 272.71875 376.105469 L 272.71875 375.378906 C 272.71875 336.199219 301.265625 305.027344 338.402344 305.027344 C 363.742188 305.027344 382.09375 313.765625 400.445312 329.207031 L 442.242188 278.957031 C 415.152344 255.503906 383.257812 241.523438 338.109375 241.523438 C 258.59375 241.523438 199.898438 300.222656 199.898438 375.085938 L 199.898438 375.816406 C 199.898438 453.59375 259.613281 508.652344 339.566406 508.652344 C 375.683594 508.652344 406.414062 498.3125 431.171875 483.308594 L 431.171875 610.320312 L 502.246094 610.320312 L 502.246094 512.730469 L 505.15625 512.730469 L 505.15625 676.300781 L 67.371094 676.300781 Z M 67.371094 86.398438 " fill-opacity="1" fill-rule="evenodd"/></g><g clip-path="url(#8e717393fd)"><path fill="#c1ff72" d="M 796.722656 175.25 L 796.722656 765.148438 L 359.082031 765.148438 L 359.082031 507.488281 C 386.753906 504.429688 410.785156 495.398438 430.882812 483.164062 L 430.882812 610.171875 L 501.953125 610.171875 L 501.953125 512.585938 L 593.269531 512.585938 L 593.269531 610.171875 L 664.484375 610.171875 L 664.484375 353.382812 L 593.414062 353.382812 L 593.414062 449.515625 L 502.097656 449.515625 L 502.097656 353.382812 L 359.226562 353.382812 L 359.226562 307.210938 C 374.519531 310.707031 387.480469 318.28125 400.296875 329.207031 L 442.097656 278.957031 C 419.375 259.292969 393.453125 246.328125 359.226562 242.6875 L 359.226562 175.25 Z M 359.082031 445.875 L 359.082031 405.382812 L 383.402344 405.382812 L 383.402344 436.554688 C 376.558594 441.070312 368.550781 444.273438 359.082031 445.875 Z M 359.082031 445.875 " fill-opacity="1" fill-rule="evenodd"/></g></svg>